<svg xmlns="http://www.w3.org/2000/svg" xmlns:xlink="http://www.w3.org/1999/xlink" xmlns:lucid="lucid" width="1041" height="442.51"><g transform="translate(720.5 -57.988557289948574)" lucid:page-tab-id="0_0"><path d="M-1000 0H500v500h-1500z" fill="#fff"/><path d="M-335.3 285a5 5 0 0 1 5-5h270a5 5 0 0 1 5 5v190a5 5 0 0 1-5 5h-270a5 5 0 0 1-5-5z" fill="#fff"/><path d="M-335.3 320v-35a5 5 0 0 1 5-5h270a5 5 0 0 1 5 5v35" fill="#ccc"/><path d="M-335.3 285a5 5 0 0 1 5-5h270a5 5 0 0 1 5 5v190a5 5 0 0 1-5 5h-270a5 5 0 0 1-5-5zM-335.3 320h280M-195.3 320v160" stroke="#333" fill="none"/><use xlink:href="#a" transform="matrix(1,0,0,1,-325.28663819633584,280) translate(0 23.6)"/><use xlink:href="#b" transform="matrix(1,0,0,1,-330.28663819633584,322.5) translate(0 17.1)"/><use xlink:href="#c" transform="matrix(1,0,0,1,-330.28663819633584,322.5) translate(18.95 17.1)"/><use xlink:href="#d" transform="matrix(1,0,0,1,-190.28663819633584,322.5) translate(0 17.1)"/><use xlink:href="#e" transform="matrix(1,0,0,1,-330.28663819633584,354.5) translate(0 17.1)"/><use xlink:href="#f" transform="matrix(1,0,0,1,-190.28663819633584,354.5) translate(0 17.1)"/><use xlink:href="#g" transform="matrix(1,0,0,1,-330.28663819633584,386.5) translate(0 17.1)"/><use xlink:href="#f" transform="matrix(1,0,0,1,-190.28663819633584,386.5) translate(0 17.1)"/><use xlink:href="#h" transform="matrix(1,0,0,1,-330.28663819633584,418.5) translate(0 17.1)"/><use xlink:href="#f" transform="matrix(1,0,0,1,-190.28663819633584,418.5) translate(0 17.1)"/><use xlink:href="#i" transform="matrix(1,0,0,1,-330.28663819633584,450.5) translate(0 17.1)"/><use xlink:href="#f" transform="matrix(1,0,0,1,-190.28663819633584,450.5) translate(0 17.1)"/><path d="M20 136a5 5 0 0 1 5-5h270a5 5 0 0 1 5 5v211a5 5 0 0 1-5 5H25a5 5 0 0 1-5-5z" fill="#fff"/><path d="M20 171v-35a5 5 0 0 1 5-5h270a5 5 0 0 1 5 5v35" fill="#ccc"/><path d="M20 136a5 5 0 0 1 5-5h270a5 5 0 0 1 5 5v211a5 5 0 0 1-5 5H25a5 5 0 0 1-5-5zM20 171h280M160 171v181" stroke="#333" fill="none"/><use xlink:href="#j" transform="matrix(1,0,0,1,30,131) translate(0 23.6)"/><use xlink:href="#b" transform="matrix(1,0,0,1,25,173.5) translate(0 17.1)"/><use xlink:href="#c" transform="matrix(1,0,0,1,25,173.5) translate(18.95 17.1)"/><use xlink:href="#d" transform="matrix(1,0,0,1,165,173.5) translate(0 17.1)"/><use xlink:href="#k" transform="matrix(1,0,0,1,25,205.5) translate(0 27.6)"/><use xlink:href="#l" transform="matrix(1,0,0,1,165,205.5) translate(0 16.799999999999997)"/><use xlink:href="#m" transform="matrix(1,0,0,1,165,205.5) translate(49.95 16.799999999999997)"/><use xlink:href="#n" transform="matrix(1,0,0,1,165,205.5) translate(0 38.4)"/><use xlink:href="#o" transform="matrix(1,0,0,1,25,258.5) translate(0 17.1)"/><use xlink:href="#f" transform="matrix(1,0,0,1,165,258.5) translate(0 17.1)"/><use xlink:href="#p" transform="matrix(1,0,0,1,25,290.5) translate(0 17.1)"/><use xlink:href="#f" transform="matrix(1,0,0,1,165,290.5) translate(0 17.1)"/><use xlink:href="#q" transform="matrix(1,0,0,1,25,322.5) translate(0 17.1)"/><use xlink:href="#r" transform="matrix(1,0,0,1,25,322.5) translate(92.9 17.1)"/><use xlink:href="#d" transform="matrix(1,0,0,1,165,322.5) translate(0 17.1)"/><path d="M-700 165a5 5 0 0 1 5-5h270a5 5 0 0 1 5 5v158a5 5 0 0 1-5 5h-270a5 5 0 0 1-5-5z" fill="#fff"/><path d="M-700 200v-35a5 5 0 0 1 5-5h270a5 5 0 0 1 5 5v35" fill="#ccc"/><path d="M-700 165a5 5 0 0 1 5-5h270a5 5 0 0 1 5 5v158a5 5 0 0 1-5 5h-270a5 5 0 0 1-5-5zM-700 200h280M-561.72 200v128" stroke="#333" fill="none"/><use xlink:href="#s" transform="matrix(1,0,0,1,-690,160) translate(0 23.6)"/><use xlink:href="#b" transform="matrix(1,0,0,1,-695,202.5) translate(0 17.1)"/><use xlink:href="#c" transform="matrix(1,0,0,1,-695,202.5) translate(18.95 17.1)"/><use xlink:href="#d" transform="matrix(1,0,0,1,-556.7201654241385,202.5) translate(0 17.1)"/><use xlink:href="#o" transform="matrix(1,0,0,1,-695,234.5) translate(0 17.1)"/><use xlink:href="#f" transform="matrix(1,0,0,1,-556.7201654241385,234.5) translate(0 17.1)"/><use xlink:href="#t" transform="matrix(1,0,0,1,-695,266.5) translate(0 17.1)"/><use xlink:href="#f" transform="matrix(1,0,0,1,-556.7201654241385,266.5) translate(0 17.1)"/><use xlink:href="#q" transform="matrix(1,0,0,1,-695,298.5) translate(0 17.1)"/><use xlink:href="#r" transform="matrix(1,0,0,1,-695,298.5) translate(92.9 17.1)"/><use xlink:href="#d" transform="matrix(1,0,0,1,-556.7201654241385,298.5) translate(0 17.1)"/><path d="M-335.3 83.5a5 5 0 0 1 5-5h270a5 5 0 0 1 5 5v94a5 5 0 0 1-5 5h-270a5 5 0 0 1-5-5z" fill="#fff"/><path d="M-335.3 118.5v-35a5 5 0 0 1 5-5h270a5 5 0 0 1 5 5v35" fill="#ccc"/><path d="M-335.3 83.5a5 5 0 0 1 5-5h270a5 5 0 0 1 5 5v94a5 5 0 0 1-5 5h-270a5 5 0 0 1-5-5zM-335.3 118.5h280M-146.67 118.5v64" stroke="#333" fill="none"/><use xlink:href="#u" transform="matrix(1,0,0,1,-325.28663819633584,78.48855728994857) translate(0 23.6)"/><use xlink:href="#v" transform="matrix(1,0,0,1,-330.28663819633584,120.98855728994857) translate(0 17.1)"/><use xlink:href="#w" transform="matrix(1,0,0,1,-330.28663819633584,120.98855728994857) translate(101.9 17.1)"/><use xlink:href="#x" transform="matrix(1,0,0,1,-330.28663819633584,120.98855728994857) translate(141.85000000000002 17.1)"/><use xlink:href="#d" transform="matrix(1,0,0,1,-141.66666666666663,120.98855728994857) translate(0 17.1)"/><use xlink:href="#y" transform="matrix(1,0,0,1,-330.28663819633584,152.98855728994857) translate(0 17.1)"/><use xlink:href="#w" transform="matrix(1,0,0,1,-330.28663819633584,152.98855728994857) translate(63.900000000000006 17.1)"/><use xlink:href="#x" transform="matrix(1,0,0,1,-330.28663819633584,152.98855728994857) translate(103.85000000000001 17.1)"/><use xlink:href="#d" transform="matrix(1,0,0,1,-141.66666666666663,152.98855728994857) translate(0 17.1)"/><path d="M-399.5 312h15.86a6 6 0 0 1 6 6v12a6 6 0 0 0 6 6h15.85" stroke="#5e5e5e" stroke-width="2" fill="none"/><path d="M-399.5 322v-20M-419.5 312h20M-355.8 326v20M-335.8 336h-20" stroke="#5e5e5e" stroke-width="2" fill="#fff"/><path d="M-399.5 216h15.86a6 6 0 0 0 6-6v-78.14a6 6 0 0 1 6-6h17.03" stroke="#5e5e5e" stroke-width="2" fill="none"/><path d="M-399.5 226v-20M-419.5 216h20" stroke="#5e5e5e" stroke-width="2" fill="#fff"/><path d="M-336.23 135.86l-20-10 20-10" stroke="#5e5e5e" stroke-width="2" fill="#fff" fill-opacity="0"/><path d="M-336.23 125.86h-20" stroke="#5e5e5e" stroke-width="2" fill="#fff"/><path d="M-.5 187h-11.14a6 6 0 0 1-6-6v-11.4a6 6 0 0 0-6-6h-12.32" stroke="#5e5e5e" stroke-width="2" fill="none"/><path d="M-.5 177v20M19.5 187h-20" stroke="#5e5e5e" stroke-width="2" fill="#fff"/><path d="M-54.34 153.6l20 10-20 10" stroke="#5e5e5e" stroke-width="2" fill="#fff" fill-opacity="0"/><path d="M-54.34 163.6h20" stroke="#5e5e5e" stroke-width="2" fill="#fff"/><path d="M-.5 336h-34.3" stroke="#5e5e5e" stroke-width="2" fill="none"/><path d="M-.5 326v20M19.5 336h-20M-34.8 346v-20M-54.8 336h20" stroke="#5e5e5e" stroke-width="2" fill="#fff"/><defs><path fill="#333" d="M165-48c-4 18 1 34 23 27l-3 20c-29 8-62 0-52-35h-2C116-14 99 4 63 4 30 4 8-16 8-49c0-68 71-67 138-67 10-26 0-56-31-54-26 1-42 9-47 31l-32-5c8-67 160-71 144 15-5 28-9 54-15 81zM42-50c3 52 80 24 89-6 7-12 7-24 11-38-47 1-103-4-100 44" id="z"/><path fill="#333" d="M133-28C103 26-5 8 13-77c13-62 24-115 90-117 29-1 46 15 56 35l19-102h32L160 0h-30zM45-64c-2 27 10 43 35 43 54-1 69-50 69-103 0-29-15-46-42-46-53-1-58 58-62 106" id="A"/><path fill="#333" d="M66-151c12-25 30-51 66-40l-6 26C45-176 58-65 38 0H6l36-190h30" id="B"/><path fill="#333" d="M111-194c62-3 86 47 72 106H45c-7 38 6 69 45 68 27-1 43-14 53-32l24 11C152-15 129 4 87 4 38 3 12-23 12-71c0-70 32-119 99-123zm44 81c14-66-71-72-95-28-4 8-8 17-11 28h106" id="C"/><path fill="#333" d="M55-144c13 50 104 24 104 88C159 21 15 23 1-39l26-10c6 40 102 42 102-4-13-50-104-23-104-87 0-71 143-71 148-8l-29 4c-5-35-85-37-89 0" id="D"/><g id="a"><use transform="matrix(0.05,0,0,0.05,0,0)" xlink:href="#z"/><use transform="matrix(0.05,0,0,0.05,10,0)" xlink:href="#A"/><use transform="matrix(0.05,0,0,0.05,20,0)" xlink:href="#A"/><use transform="matrix(0.05,0,0,0.05,30,0)" xlink:href="#B"/><use transform="matrix(0.05,0,0,0.05,35.95,0)" xlink:href="#C"/><use transform="matrix(0.05,0,0,0.05,45.95,0)" xlink:href="#D"/><use transform="matrix(0.05,0,0,0.05,54.95,0)" xlink:href="#D"/><use transform="matrix(0.05,0,0,0.05,63.95,0)" xlink:href="#C"/><use transform="matrix(0.05,0,0,0.05,73.95,0)" xlink:href="#D"/></g><path fill="#333" d="M50-231l6-30h32l-6 30H50zM6 0l37-190h31L37 0H6" id="E"/><g id="b"><use transform="matrix(0.05,0,0,0.05,0,0)" xlink:href="#E"/><use transform="matrix(0.05,0,0,0.05,3.95,0)" xlink:href="#A"/></g><path fill="#333" d="M17-49c1-102 45-165 103-212h30C92-210 49-145 49-46 49 4 63 43 85 75H54C30 43 18 2 17-49" id="F"/><path fill="#333" d="M238-179c0 84-86 86-175 82L45 0H11l48-248c82 0 179-12 179 69zm-34 1c0-53-64-42-116-43l-19 98c63 0 135 9 135-55" id="G"/><path fill="#333" d="M180 0L97-118 63-96 45 0H11l48-248h34L69-126c44-43 94-81 141-122h43L121-137 219 0h-39" id="H"/><path fill="#333" d="M98-137C97-35 54 29-4 75h-31C23 23 67-41 67-140c0-50-15-89-37-121h31c24 32 36 73 37 124" id="I"/><g id="c"><use transform="matrix(0.05,0,0,0.05,0,0)" xlink:href="#F"/><use transform="matrix(0.05,0,0,0.05,5.95,0)" xlink:href="#G"/><use transform="matrix(0.05,0,0,0.05,17.95,0)" xlink:href="#H"/><use transform="matrix(0.05,0,0,0.05,29.950000000000003,0)" xlink:href="#I"/></g><path fill="#333" d="M67-158c22-48 132-52 116 29L158 0h-32l25-140c3-38-53-32-70-12C52-117 51-52 38 0H6l36-190h30" id="J"/><path fill="#333" d="M51-54c-9 22 5 41 31 30L79-1C43 14 10-4 19-52l22-115H19l5-23h22l19-43h21l-9 43h35l-4 23H73" id="K"/><g id="d"><use transform="matrix(0.05,0,0,0.05,0,0)" xlink:href="#E"/><use transform="matrix(0.05,0,0,0.05,3.95,0)" xlink:href="#J"/><use transform="matrix(0.05,0,0,0.05,13.949999999999998,0)" xlink:href="#K"/></g><g id="e"><use transform="matrix(0.05,0,0,0.05,0,0)" xlink:href="#D"/><use transform="matrix(0.05,0,0,0.05,9,0)" xlink:href="#K"/><use transform="matrix(0.05,0,0,0.05,14,0)" xlink:href="#B"/><use transform="matrix(0.05,0,0,0.05,19.95,0)" xlink:href="#C"/><use transform="matrix(0.05,0,0,0.05,29.950000000000003,0)" xlink:href="#C"/><use transform="matrix(0.05,0,0,0.05,39.95,0)" xlink:href="#K"/></g><path fill="#333" d="M103-194c29 0 47 14 56 36 2-11 5-23 8-32h30L160-5C157 61 82 97 21 62 9 55 4 45 1 30l28-7c7 42 83 31 92-3 4-16 9-38 13-55-13 20-29 36-62 36-40 0-60-25-60-64 0-71 23-131 91-131zm4 24c-53 0-58 54-61 104-2 27 10 44 36 44 49 0 65-50 67-102 1-29-15-46-42-46" id="L"/><g id="f"><use transform="matrix(0.05,0,0,0.05,0,0)" xlink:href="#D"/><use transform="matrix(0.05,0,0,0.05,9,0)" xlink:href="#K"/><use transform="matrix(0.05,0,0,0.05,14,0)" xlink:href="#B"/><use transform="matrix(0.05,0,0,0.05,19.95,0)" xlink:href="#E"/><use transform="matrix(0.05,0,0,0.05,23.9,0)" xlink:href="#J"/><use transform="matrix(0.05,0,0,0.05,33.9,0)" xlink:href="#L"/></g><path fill="#333" d="M67-158c15-20 31-36 64-36 94 0 33 127 27 194h-32l25-140c3-38-53-32-70-12C52-117 51-51 37 0H6l51-261h31" id="M"/><path fill="#333" d="M68-162c25-46 127-43 121 31C183-60 169 1 98 4 69 5 53-11 43-31L36 0H5l52-261h31zm88 36c2-27-9-43-34-43-55 0-70 51-70 103 0 29 15 45 43 46 52 0 58-58 61-106" id="N"/><path fill="#333" d="M30-147c31-64 166-65 159 27C183-49 158 1 86 4 9 8 1-88 30-147zM88-20c53 0 68-48 68-100 0-31-11-51-44-50-52 1-68 46-68 97 0 32 13 53 44 53" id="O"/><g id="g"><use transform="matrix(0.05,0,0,0.05,0,0)" xlink:href="#J"/><use transform="matrix(0.05,0,0,0.05,10,0)" xlink:href="#C"/><use transform="matrix(0.05,0,0,0.05,20,0)" xlink:href="#E"/><use transform="matrix(0.05,0,0,0.05,23.95,0)" xlink:href="#L"/><use transform="matrix(0.05,0,0,0.05,33.95,0)" xlink:href="#M"/><use transform="matrix(0.05,0,0,0.05,43.95,0)" xlink:href="#N"/><use transform="matrix(0.05,0,0,0.05,53.95,0)" xlink:href="#O"/><use transform="matrix(0.05,0,0,0.05,63.95,0)" xlink:href="#B"/><use transform="matrix(0.05,0,0,0.05,69.9,0)" xlink:href="#M"/><use transform="matrix(0.05,0,0,0.05,79.9,0)" xlink:href="#O"/><use transform="matrix(0.05,0,0,0.05,89.9,0)" xlink:href="#O"/><use transform="matrix(0.05,0,0,0.05,99.9,0)" xlink:href="#A"/></g><path fill="#333" d="M44-68c0 29 11 47 38 47 30 0 42-19 51-41l28 9C148-21 126 4 82 4 31 4 10-29 12-85c3-77 74-140 146-93 12 8 15 23 18 40l-31 5c-1-22-13-36-36-36-52 0-65 49-65 101" id="P"/><path fill="#333" d="M198-190L69 30C53 58 25 83-20 72c4-11-1-27 19-22 33-1 43-29 59-52L20-190h32L79-34l84-156h35" id="Q"/><g id="h"><use transform="matrix(0.05,0,0,0.05,0,0)" xlink:href="#P"/><use transform="matrix(0.05,0,0,0.05,9,0)" xlink:href="#E"/><use transform="matrix(0.05,0,0,0.05,12.949999999999998,0)" xlink:href="#K"/><use transform="matrix(0.05,0,0,0.05,17.95,0)" xlink:href="#Q"/></g><g id="i"><use transform="matrix(0.05,0,0,0.05,0,0)" xlink:href="#D"/><use transform="matrix(0.05,0,0,0.05,9,0)" xlink:href="#K"/><use transform="matrix(0.05,0,0,0.05,14,0)" xlink:href="#z"/><use transform="matrix(0.05,0,0,0.05,24,0)" xlink:href="#K"/><use transform="matrix(0.05,0,0,0.05,29,0)" xlink:href="#C"/></g><path fill="#333" d="M67 3c-93-2-31-127-26-193h32L48-50c-3 39 53 32 70 12 30-34 30-101 43-152h32L157 0h-30c1-10 6-24 4-33-14 20-29 37-64 36" id="R"/><g id="j"><use transform="matrix(0.05,0,0,0.05,0,0)" xlink:href="#R"/><use transform="matrix(0.05,0,0,0.05,10,0)" xlink:href="#D"/><use transform="matrix(0.05,0,0,0.05,19,0)" xlink:href="#C"/><use transform="matrix(0.05,0,0,0.05,29,0)" xlink:href="#B"/><use transform="matrix(0.05,0,0,0.05,34.95,0)" xlink:href="#D"/></g><path fill="#333" d="M67-162c32-53 139-36 121 50C175-51 163 2 97 4 68 4 52-11 42-31 38 6 28 39 22 75H-9l50-265h29c-1 10 0 20-3 28zm89 36c0-26-10-43-35-43-54 0-67 50-69 103-1 29 14 45 42 46 53 0 62-58 62-106" id="S"/><g id="k"><use transform="matrix(0.05,0,0,0.05,0,0)" xlink:href="#K"/><use transform="matrix(0.05,0,0,0.05,5,0)" xlink:href="#Q"/><use transform="matrix(0.05,0,0,0.05,14,0)" xlink:href="#S"/><use transform="matrix(0.05,0,0,0.05,24,0)" xlink:href="#C"/></g><path fill="#333" d="M248-111c6-24 9-61-24-58-72 9-57 108-77 169h-31l26-142c3-37-50-30-64-10C52-115 50-51 37 0H6l36-190h30c-1 10-6 24-4 32 13-43 101-52 105 5 13-22 29-41 61-41 90 0 28 129 23 194h-31" id="T"/><g id="l"><use transform="matrix(0.05,0,0,0.05,0,0)" xlink:href="#C"/><use transform="matrix(0.05,0,0,0.05,10,0)" xlink:href="#J"/><use transform="matrix(0.05,0,0,0.05,20,0)" xlink:href="#R"/><use transform="matrix(0.05,0,0,0.05,30,0)" xlink:href="#T"/></g><path fill="#333" d="M58-38C53-5 46 26 28 46H7C19 32 27 18 32 0H17l7-38h34" id="U"/><g id="m"><use transform="matrix(0.05,0,0,0.05,0,0)" xlink:href="#F"/><use transform="matrix(0.05,0,0,0.05,5.95,0)" xlink:href="#z"/><use transform="matrix(0.05,0,0,0.05,15.949999999999998,0)" xlink:href="#A"/><use transform="matrix(0.05,0,0,0.05,25.950000000000003,0)" xlink:href="#T"/><use transform="matrix(0.05,0,0,0.05,40.9,0)" xlink:href="#E"/><use transform="matrix(0.05,0,0,0.05,44.85,0)" xlink:href="#J"/><use transform="matrix(0.05,0,0,0.05,54.85,0)" xlink:href="#U"/></g><path fill="#333" d="M6 0l50-261h32L37 0H6" id="V"/><g id="n"><use transform="matrix(0.05,0,0,0.05,0,0)" xlink:href="#P"/><use transform="matrix(0.05,0,0,0.05,9,0)" xlink:href="#V"/><use transform="matrix(0.05,0,0,0.05,12.949999999999998,0)" xlink:href="#E"/><use transform="matrix(0.05,0,0,0.05,16.9,0)" xlink:href="#C"/><use transform="matrix(0.05,0,0,0.05,26.899999999999995,0)" xlink:href="#J"/><use transform="matrix(0.05,0,0,0.05,36.9,0)" xlink:href="#K"/><use transform="matrix(0.05,0,0,0.05,41.9,0)" xlink:href="#I"/></g><g id="o"><use transform="matrix(0.05,0,0,0.05,0,0)" xlink:href="#J"/><use transform="matrix(0.05,0,0,0.05,10,0)" xlink:href="#z"/><use transform="matrix(0.05,0,0,0.05,20,0)" xlink:href="#T"/><use transform="matrix(0.05,0,0,0.05,34.95,0)" xlink:href="#C"/></g><path fill="#333" d="M76-167L44 0H12l33-167H18l4-23h27c3-47 25-81 82-69l-4 24c-35-8-44 15-46 45h37l-5 23H76" id="W"/><g id="p"><use transform="matrix(0.05,0,0,0.05,0,0)" xlink:href="#P"/><use transform="matrix(0.05,0,0,0.05,9,0)" xlink:href="#S"/><use transform="matrix(0.05,0,0,0.05,19,0)" xlink:href="#W"/></g><path fill="#333" d="M-28 44V31h207v13H-28" id="X"/><g id="q"><use transform="matrix(0.05,0,0,0.05,0,0)" xlink:href="#z"/><use transform="matrix(0.05,0,0,0.05,10,0)" xlink:href="#A"/><use transform="matrix(0.05,0,0,0.05,20,0)" xlink:href="#A"/><use transform="matrix(0.05,0,0,0.05,30,0)" xlink:href="#B"/><use transform="matrix(0.05,0,0,0.05,35.95,0)" xlink:href="#C"/><use transform="matrix(0.05,0,0,0.05,45.95,0)" xlink:href="#D"/><use transform="matrix(0.05,0,0,0.05,54.95,0)" xlink:href="#D"/><use transform="matrix(0.05,0,0,0.05,63.95,0)" xlink:href="#X"/><use transform="matrix(0.05,0,0,0.05,73.95,0)" xlink:href="#E"/><use transform="matrix(0.05,0,0,0.05,77.9,0)" xlink:href="#A"/></g><path fill="#333" d="M87-220l-18 92h140l-5 28H64L45 0H11l48-248h178l-5 28H87" id="Y"/><g id="r"><use transform="matrix(0.05,0,0,0.05,0,0)" xlink:href="#F"/><use transform="matrix(0.05,0,0,0.05,5.95,0)" xlink:href="#Y"/><use transform="matrix(0.05,0,0,0.05,16.900000000000002,0)" xlink:href="#H"/><use transform="matrix(0.05,0,0,0.05,28.900000000000002,0)" xlink:href="#I"/></g><g id="s"><use transform="matrix(0.05,0,0,0.05,0,0)" xlink:href="#P"/><use transform="matrix(0.05,0,0,0.05,9,0)" xlink:href="#O"/><use transform="matrix(0.05,0,0,0.05,19,0)" xlink:href="#T"/><use transform="matrix(0.05,0,0,0.05,33.95,0)" xlink:href="#S"/><use transform="matrix(0.05,0,0,0.05,43.95,0)" xlink:href="#z"/><use transform="matrix(0.05,0,0,0.05,53.95,0)" xlink:href="#J"/><use transform="matrix(0.05,0,0,0.05,63.95,0)" xlink:href="#E"/><use transform="matrix(0.05,0,0,0.05,67.9,0)" xlink:href="#C"/><use transform="matrix(0.05,0,0,0.05,77.9,0)" xlink:href="#D"/></g><path fill="#333" d="M51-231l6-30h31l-6 30H51zM33 24C28 60 2 84-40 72c3-12-1-29 18-22C-5 49-1 37 2 19l41-209h32" id="Z"/><g id="t"><use transform="matrix(0.05,0,0,0.05,0,0)" xlink:href="#P"/><use transform="matrix(0.05,0,0,0.05,9,0)" xlink:href="#J"/><use transform="matrix(0.05,0,0,0.05,19,0)" xlink:href="#S"/><use transform="matrix(0.05,0,0,0.05,29,0)" xlink:href="#Z"/></g><g id="u"><use transform="matrix(0.05,0,0,0.05,0,0)" xlink:href="#P"/><use transform="matrix(0.05,0,0,0.05,9,0)" xlink:href="#O"/><use transform="matrix(0.05,0,0,0.05,19,0)" xlink:href="#T"/><use transform="matrix(0.05,0,0,0.05,33.95,0)" xlink:href="#S"/><use transform="matrix(0.05,0,0,0.05,43.95,0)" xlink:href="#z"/><use transform="matrix(0.05,0,0,0.05,53.95,0)" xlink:href="#J"/><use transform="matrix(0.05,0,0,0.05,63.95,0)" xlink:href="#Q"/><use transform="matrix(0.05,0,0,0.05,72.95,0)" xlink:href="#X"/><use transform="matrix(0.05,0,0,0.05,82.95,0)" xlink:href="#R"/><use transform="matrix(0.05,0,0,0.05,92.95,0)" xlink:href="#D"/><use transform="matrix(0.05,0,0,0.05,101.95,0)" xlink:href="#C"/><use transform="matrix(0.05,0,0,0.05,111.95,0)" xlink:href="#B"/></g><g id="v"><use transform="matrix(0.05,0,0,0.05,0,0)" xlink:href="#P"/><use transform="matrix(0.05,0,0,0.05,9,0)" xlink:href="#O"/><use transform="matrix(0.05,0,0,0.05,19,0)" xlink:href="#T"/><use transform="matrix(0.05,0,0,0.05,33.95,0)" xlink:href="#S"/><use transform="matrix(0.05,0,0,0.05,43.95,0)" xlink:href="#z"/><use transform="matrix(0.05,0,0,0.05,53.95,0)" xlink:href="#J"/><use transform="matrix(0.05,0,0,0.05,63.95,0)" xlink:href="#Q"/><use transform="matrix(0.05,0,0,0.05,72.95,0)" xlink:href="#X"/><use transform="matrix(0.05,0,0,0.05,82.95,0)" xlink:href="#E"/><use transform="matrix(0.05,0,0,0.05,86.9,0)" xlink:href="#A"/></g><g id="w"><use transform="matrix(0.05,0,0,0.05,0,0)" xlink:href="#F"/><use transform="matrix(0.05,0,0,0.05,5.95,0)" xlink:href="#G"/><use transform="matrix(0.05,0,0,0.05,17.95,0)" xlink:href="#H"/><use transform="matrix(0.05,0,0,0.05,29.950000000000003,0)" xlink:href="#U"/></g><g id="x"><use transform="matrix(0.05,0,0,0.05,0,0)" xlink:href="#Y"/><use transform="matrix(0.05,0,0,0.05,10.950000000000001,0)" xlink:href="#H"/><use transform="matrix(0.05,0,0,0.05,22.950000000000003,0)" xlink:href="#I"/></g><g id="y"><use transform="matrix(0.05,0,0,0.05,0,0)" xlink:href="#R"/><use transform="matrix(0.05,0,0,0.05,10,0)" xlink:href="#D"/><use transform="matrix(0.05,0,0,0.05,19,0)" xlink:href="#C"/><use transform="matrix(0.05,0,0,0.05,29,0)" xlink:href="#B"/><use transform="matrix(0.05,0,0,0.05,34.95,0)" xlink:href="#X"/><use transform="matrix(0.05,0,0,0.05,44.95,0)" xlink:href="#E"/><use transform="matrix(0.05,0,0,0.05,48.900000000000006,0)" xlink:href="#A"/></g></defs></g></svg>